<?xml version="1.0" encoding="utf-8"?>
<svg viewBox="-15.536 13.901 500 500" xmlns="http://www.w3.org/2000/svg">
  <g transform="matrix(0.341576, 0, 0, 0.341576, 69.147072, 82.334778)" style="">
    <g transform="translate(0.000000,511.000000) scale(0.100000,-0.100000)">
      <path d="M1973.5,4565.4c-461.6-55.5-873.4-249-1214.3-576.5c-457.8-436.7-683.8-997.9-657-1616.6c34.5-739.3,446.3-1407.8,1078.4-1754.5l141.7-78.5V-1786v-2325.3h2940.1h2940.1v499.9c0,392.6,5.7,498,24.9,490.3c11.5-5.7,616.8-287.3,1340.8-626.3s1321.6-612.9,1327.3-609.1c3.8,5.7,5.8,1151.1,3.8,2547.4l-5.7,2537.9L8629.4,137c-695.3-325.6-1300.5-607.2-1344.6-628.2l-82.4-36.4V12.5l1.9,540.1l157.1,91.9c358.2,206.9,628.2,499.9,817.9,884.9c187.7,379.2,256.7,745.1,212.6,1139.6c-55.5,513.3-249,919.4-612.9,1285.2c-419.5,417.5-909.8,618.7-1505.5,618.7c-549.7-1.9-1066.9-212.6-1455.7-595.7c-250.9-245.2-413.7-509.5-553.5-896.4c-11.5-30.6-26.8-7.7-67,105.3C3976.9,3782,3486.6,4266.6,2904.3,4460C2613.2,4557.7,2255,4597.9,1973.5,4565.4z M2632.3,3962c298.8-86.2,503.8-212.6,724-448.2c465.4-494.2,547.8-1248.8,199.2-1840.7c-160.9-273.9-392.7-484.6-683.8-620.6c-233.7-111.1-354.3-136-668.5-136c-237.5,0-298.8,5.7-421.4,44c-653.1,206.9-1084.1,745.1-1124.3,1405.9c-44,720.2,396.5,1361.8,1087.9,1584C2023.3,4040.6,2347,4044.4,2632.3,3962z M6715.9,3960.1C7256,3805,7664,3381.7,7807.7,2832c51.7-199.2,47.9-563.1-9.6-766.1c-124.5-446.3-411.8-798.7-815.9-997.9c-260.5-128.3-371.6-151.3-708.7-151.3c-273.9,1.9-296.9,3.8-467.3,63.2c-425.2,147.5-741.3,427.1-929,829.4c-93.8,197.3-128.3,339-139.8,584.2c-17.2,346.7,59.4,634,245.2,917.5c201.1,308.4,486.5,524.8,842.8,639.7C6101.1,4040.6,6428.6,4044.4,6715.9,3960.1z M4287.2,1784.2C4427,1336,4791,891.7,5221.9,638.9l132.1-76.6H4252.7H3153.3l151.3,93.9c411.8,254.8,716.3,616.8,875.3,1040c34.5,91.9,67,168.5,72.8,168.5S4273.8,1828.3,4287.2,1784.2z" style="fill: rgb(43, 169, 119);"/>
      <path d="M1967.7,3245.7c-227.9-74.7-402.2-231.8-505.7-453.9c-49.8-103.4-53.6-132.2-53.6-333.3c0-208.8,3.8-226,61.3-346.7c74.7-151.3,249-323.7,392.7-390.7c421.4-191.5,896.4-15.3,1091.8,406.1c195.4,417.5-15.3,934.7-450.1,1101.3C2358.4,3285.9,2111.4,3293.6,1967.7,3245.7z" style="fill: rgb(43, 169, 119);"/>
      <path d="M6049.4,3245.7c-588-187.7-771.9-927-339-1359.9c316-314.1,804.4-321.8,1137.7-17.2c289.2,262.4,342.9,718.3,122.6,1047.7C6771.5,3215,6386.5,3352.9,6049.4,3245.7z" style="fill: rgb(43, 169, 119);"/>
    </g>
  </g>
</svg>